<?xml version="1.0" encoding="UTF-8"?>
<svg id="Layer_1" data-name="Layer 1" xmlns="http://www.w3.org/2000/svg" viewBox="0 0 200 52.16">
  <defs>
    <style>
      .cls-1 {
        fill: #0c2836;
      }
    </style>
  </defs>
  <g>
    <path class="cls-1" d="M39.24,33.69c-.64-.64-1.54-.97-2.43-.8-1.26.25-2.13,1.35-2.13,2.59v12.6c0,.48-.28.92-.74,1.05-.57.16-1.13-.18-1.28-.71l-6.09-22.32,6.09-22.32c.14-.53.71-.89,1.28-.71.46.12.74.58.74,1.05v12.6c0,1.24.87,2.32,2.13,2.59.89.18,1.79-.16,2.43-.8l6.77-6.77c.11-.11.11-.28,0-.39l-1.75-1.75c-.11-.11-.28-.11-.37,0l-5.58,5.58c-.21.21-.6.07-.6-.25V4.05c0-2.52-2.32-4.52-4.93-3.95-1.49.32-2.64,1.52-3.05,2.99l-4.73,17.31L20.27,3.09c-.41-1.47-1.56-2.68-3.05-2.99-2.62-.55-4.93,1.44-4.93,3.95v10.86c0,.32-.37.46-.58.25l-5.58-5.58c-.11-.11-.28-.11-.39,0l-1.75,1.75c-.11.11-.11.28,0,.39l6.79,6.77c.64.64,1.54.97,2.43.8,1.28-.25,2.13-1.35,2.13-2.59V4.08c0-.46.28-.92.74-1.05.57-.16,1.13.18,1.28.71l6.09,22.32-6.09,22.32c-.14.53-.71.89-1.28.71-.46-.12-.74-.58-.74-1.05v-12.6c0-1.24-.85-2.32-2.13-2.59-.89-.18-1.79.16-2.43.8l-6.77,6.77c-.11.11-.11.28,0,.39l1.75,1.75c.11.11.28.11.39,0l5.58-5.58c.21-.21.58-.07.58.25v10.86c0,2.52,2.32,4.52,4.93,3.95,1.49-.32,2.64-1.52,3.05-2.99l4.73-17.31,4.73,17.31c.41,1.47,1.56,2.68,3.05,2.99,2.62.55,4.93-1.44,4.93-3.95v-10.86c0-.32.37-.46.6-.25l5.58,5.58c.11.11.28.11.37,0l1.75-1.75c.11-.11.11-.28,0-.39l-6.77-6.77h0l-.02.02Z"/>
    <path class="cls-1" d="M49.82,31.26l-10.97-3.65c-.5-.16-.92-.53-1.08-1.03-.05-.18-.07-.34-.07-.5s.02-.34.07-.5c.16-.5.58-.87,1.08-1.03l10.97-3.65c.14-.05.21-.19.18-.34l-.78-2.36c-.05-.14-.19-.21-.34-.18l-11.04,3.69c-1.88.62-3.15,2.39-3.15,4.38s1.26,3.74,3.15,4.38l11.04,3.69c.14.05.3-.04.34-.18l.78-2.36c.05-.14-.04-.3-.18-.34v-.04Z"/>
    <path class="cls-1" d="M15.32,26.07c0-1.98-1.26-3.74-3.15-4.38l-11.04-3.69c-.14-.05-.3.04-.34.18L.02,20.54c-.05.14.04.3.18.34l10.97,3.65c.5.16.92.53,1.08,1.03.05.18.07.34.07.5s0,.34-.07.5c-.16.5-.58.87-1.08,1.03L.19,31.22c-.14.05-.21.19-.18.34l.78,2.36c.05.14.19.21.34.18l11.04-3.69c1.88-.62,3.15-2.39,3.15-4.38v.04Z"/>
  </g>
  <g>
    <path class="cls-1" d="M69.68,35.46c-2.2,0-3.95-.62-5.24-1.88s-1.93-3.05-1.93-5.4v-4.23c0-2.36.64-4.16,1.93-5.4s3.03-1.88,5.24-1.88,3.84.6,5.01,1.81,1.77,2.85,1.77,4.93v.16h-2.76v-.23c0-1.22-.34-2.21-.99-2.99s-1.67-1.17-3.03-1.17-2.44.43-3.22,1.26c-.78.83-1.17,1.98-1.17,3.47v4.34c0,1.45.39,2.62,1.17,3.45s1.84,1.26,3.22,1.26,2.37-.39,3.03-1.17.99-1.77.99-2.98v-.44h2.76v.35c0,2.09-.58,3.72-1.77,4.93-1.17,1.2-2.85,1.81-5.01,1.81h0v.02Z"/>
    <path class="cls-1" d="M85.46,35.46c-1.28,0-2.41-.27-3.38-.78s-1.77-1.28-2.34-2.25-.85-2.14-.85-3.49v-.23c0-1.35.28-2.5.85-3.47.57-.97,1.35-1.72,2.34-2.27.99-.53,2.13-.8,3.38-.8s2.41.27,3.4.8c.99.53,1.77,1.29,2.34,2.27s.85,2.13.85,3.47v.23c0,1.35-.28,2.5-.85,3.49-.57.97-1.35,1.74-2.34,2.25-.99.53-2.13.78-3.4.78ZM85.46,33.09c1.17,0,2.13-.37,2.85-1.12s1.1-1.79,1.1-3.1v-.07c0-1.33-.35-2.36-1.08-3.1s-1.68-1.12-2.87-1.12-2.09.37-2.83,1.12c-.73.74-1.1,1.79-1.1,3.1v.07c0,1.33.37,2.36,1.1,3.1s1.67,1.12,2.83,1.12h0Z"/>
    <path class="cls-1" d="M94.91,35.1v-12.72h2.6v1.91h.41c.25-.51.67-.99,1.29-1.45.62-.44,1.54-.67,2.76-.67s1.82.21,2.57.64c.74.43,1.33,1.03,1.77,1.82.43.78.64,1.72.64,2.83v7.64h-2.66v-7.44c0-1.1-.27-1.91-.83-2.44s-1.31-.78-2.27-.78-1.98.35-2.64,1.08-.99,1.77-.99,3.15v6.43h-2.66,0Z"/>
    <path class="cls-1" d="M110.19,22.38v-4.2h2.66v4.2h3.38v2.25h-3.38v7.46c0,.51.25.78.73.78h2.66v2.25h-3.51c-.78,0-1.38-.23-1.84-.69-.46-.46-.69-1.08-.69-1.86v-10.17h0v-.02Z"/>
    <path class="cls-1" d="M119.46,35.1v-12.72h2.6v1.51h.41c.21-.53.53-.92.99-1.17.46-.25,1.03-.37,1.68-.37h1.52v2.39h-1.63c-.87,0-1.56.23-2.11.71-.55.48-.83,1.2-.83,2.18v7.48h-2.66.02Z"/>
    <path class="cls-1" d="M165.82,35.1v-12.72h2.66v12.72h-2.66Z"/>
    <path class="cls-1" d="M167.15,20.29c-.51,0-.96-.18-1.31-.5-.35-.34-.53-.76-.53-1.31s.18-.97.53-1.31.78-.5,1.31-.5.97.16,1.31.5.51.76.51,1.31-.18.97-.51,1.31c-.34.34-.78.5-1.31.5Z"/>
    <path class="cls-1" d="M171.9,35.1v-12.72h2.6v1.91h.41c.25-.51.67-.99,1.29-1.45.62-.44,1.54-.67,2.76-.67s1.82.21,2.57.64c.74.43,1.35,1.03,1.77,1.82.43.78.64,1.72.64,2.83v7.64h-2.66v-7.44c0-1.1-.28-1.91-.83-2.44s-1.31-.78-2.27-.78-1.98.35-2.64,1.08c-.66.73-.99,1.77-.99,3.15v6.43h-2.66,0Z"/>
    <path class="cls-1" d="M192.67,35.46c-1.05,0-2.02-.27-2.92-.78s-1.61-1.26-2.16-2.23-.81-2.14-.81-3.53v-.23c0-1.36.27-2.53.8-3.51s1.24-1.74,2.14-2.25,1.88-.78,2.94-.78,1.52.11,2.07.32c.57.21,1.03.48,1.38.78.35.32.64.66.83.99h.41v-7.23h2.66v18.07h-2.6v-1.81h-.41c-.32.55-.81,1.05-1.49,1.51-.66.44-1.61.67-2.85.67h.02ZM193.43,33.14c1.15,0,2.11-.37,2.85-1.12s1.12-1.81,1.12-3.17v-.07c0-1.36-.37-2.41-1.12-3.15-.74-.74-1.7-1.12-2.87-1.12s-2.07.37-2.82,1.12c-.74.74-1.12,1.79-1.12,3.15v.07c0,1.38.37,2.43,1.12,3.17s1.68,1.12,2.82,1.12h.02Z"/>
    <path class="cls-1" d="M156.51,18.86l-3.9,14.39-3.9-14.39c-.35-1.29-1.52-2.2-2.87-2.2h0c-1.63,0-2.98,1.33-2.98,2.98v15.45h2.71v-15.71h.41l4.27,15.71h4.69l4.27-15.71h.41v15.71h2.71v-15.45c0-1.63-1.33-2.98-2.98-2.98h0c-1.35,0-2.52.9-2.87,2.2h.02Z"/>
    <path class="cls-1" d="M138.2,23.45c-.94-.85-2.25-1.26-3.9-1.26s-1.98.18-2.73.51c-.76.34-1.36.8-1.82,1.35-.46.57-.8,1.19-.99,1.88l2.48.8c.16-.69.48-1.24.96-1.68.48-.43,1.19-.64,2.09-.64s1.61.23,2.07.67c.44.44.67,1.05.67,1.77v.83h-3.86c-.92,0-1.75.14-2.48.44s-1.31.73-1.74,1.31c-.43.57-.64,1.15-.64,2.02s.21,1.59.64,2.2.99,1.06,1.7,1.36c.71.32,1.52.46,2.44.46s1.58-.12,2.11-.37c.53-.25.94-.55,1.2-.89s.48-.64.62-.9h.39v1.81h2.21v-8.08c0-1.54-.48-2.75-1.42-3.58h0l-.02-.02ZM137.02,29.98c0,1.06-.32,1.75-.97,2.36-.66.62-1.51.92-2.59.92s-1.38-.18-1.82-.51-.67-.81-.67-1.4.21-.87.64-1.17c.43-.3.99-.44,1.7-.44h3.72v.27h0v-.02Z"/>
  </g>
</svg>